<?xml version="1.0" encoding="UTF-8"?>
<svg version="1.1" xmlns="http://www.w3.org/2000/svg" width="510" height="289">
<path d="M0 0 C1.84359836 -0.00390468 3.68719584 -0.00824285 5.53079224 -0.01298523 C9.35421701 -0.02036124 13.17754927 -0.02021721 17.00097656 -0.01489258 C21.86207939 -0.00906967 26.72280469 -0.02613896 31.58384514 -0.04923725 C35.37602897 -0.06406351 39.16812328 -0.06483494 42.96033096 -0.06172752 C44.75180949 -0.06223496 46.54329381 -0.06736191 48.3347435 -0.07753944 C62.90949282 -0.15029877 76.02618861 0.76958691 88.9453125 8.30078125 C87.37350716 12.36842294 84.45388363 14.8072127 81.2578125 17.61328125 C80.16423886 18.59249425 79.0717851 19.57295941 77.98046875 20.5546875 C77.45469238 21.02664551 76.92891602 21.49860352 76.38720703 21.98486328 C74.59769739 23.61802565 72.88849753 25.31831119 71.1953125 27.05078125 C68.94949225 29.33979036 66.63284448 31.46708456 64.1953125 33.55078125 C53.68533314 42.71906112 45.44506623 51.81125583 38.94482422 64.20898438 C37.0109739 67.84895178 35.81648672 69.8425401 31.9453125 71.30078125 C29.69827271 71.5657959 29.69827271 71.5657959 27.21533203 71.58789062 C25.81204147 71.60801208 25.81204147 71.60801208 24.38040161 71.62854004 C23.37315033 71.63381714 22.36589905 71.63909424 21.328125 71.64453125 C20.27938202 71.65915405 19.23063904 71.67377686 18.15011597 71.68884277 C14.7902206 71.73533185 11.43038157 71.76948224 8.0703125 71.80078125 C-19.22346183 72.05909449 -43.60980381 72.85589756 -64.0546875 93.30078125 C-64.69277344 93.93886719 -65.33085938 94.57695313 -65.98828125 95.234375 C-79.12972334 109.31240093 -85.66681801 128.76399865 -85.3046875 147.84375 C-83.8706945 167.67318441 -75.86261828 184.23843299 -62.0546875 198.30078125 C-61.37792969 199.00203125 -60.70117188 199.70328125 -60.00390625 200.42578125 C-44.67786472 215.20343335 -24.69608507 219.44936282 -4.078125 219.46875 C-2.8352774 219.4720784 -1.59242981 219.4754068 -0.31192017 219.47883606 C2.31206901 219.48388468 4.93606457 219.48624502 7.56005859 219.48608398 C11.53621002 219.48596295 15.51217527 219.50641924 19.48828125 219.52539062 C22.04947823 219.5283267 24.61067651 219.53031006 27.171875 219.53125 C28.34319977 219.53843552 29.51452454 219.54562103 30.72134399 219.55302429 C52.12716075 219.49496528 70.76068608 214.47072186 86.75 199.65625 C101.59103995 183.73250073 106.39870408 165.67850336 106.38110352 144.42456055 C106.41596653 124.85711148 112.28297642 109.03079165 126.05859375 94.99609375 C134.18959662 87.40422368 144.8165488 81.43233104 155.8828125 79.67578125 C160.01429919 80.5189418 161.22196452 82.09832575 163.9453125 85.30078125 C165.39322876 87.96152773 166.46316234 90.71068627 167.5078125 93.55078125 C167.95386841 94.73571167 167.95386841 94.73571167 168.40893555 95.94458008 C171.3183812 103.91482763 173.37252548 111.97136683 174.9453125 120.30078125 C175.17089844 121.47382812 175.39648438 122.646875 175.62890625 123.85546875 C181.75608189 161.80170135 172.15795486 199.81671698 150.81640625 231.45703125 C133.95268222 254.51268102 111.35331579 271.80750797 84.7578125 282.05078125 C84.07734863 282.32059814 83.39688477 282.59041504 82.69580078 282.8684082 C67.37208954 288.46340883 51.45720365 289.91343603 35.28515625 289.796875 C33.47595664 289.79703075 31.66675672 289.79853222 29.8575592 289.80128479 C26.10206999 289.80265386 22.3469696 289.79036423 18.59155273 289.76733398 C13.83626528 289.73893357 9.08162054 289.74171284 4.32628536 289.7544241 C0.60163615 289.76145862 -3.12287075 289.7535049 -6.84750175 289.74116707 C-8.59855029 289.73672903 -10.34961452 289.73624668 -12.10066414 289.74023247 C-27.80875356 289.7592682 -43.63138474 288.4901449 -58.5546875 283.23828125 C-59.41795654 282.94010498 -60.28122559 282.64192871 -61.1706543 282.3347168 C-81.41577071 275.04721342 -98.56302307 263.08827911 -114.0546875 248.30078125 C-114.70179687 247.71683594 -115.34890625 247.13289062 -116.015625 246.53125 C-140.17068446 223.90436777 -154.96113929 188.24392108 -156.0546875 155.30078125 C-156.13203125 153.48513672 -156.13203125 153.48513672 -156.2109375 151.6328125 C-157.34919744 112.43132898 -143.58295525 75.02524916 -117.0546875 46.30078125 C-116.26707031 45.43066406 -115.47945312 44.56054688 -114.66796875 43.6640625 C-83.39654492 10.69368186 -44.03080752 -0.03981109 0 0 Z " fill="#FFFFFF" transform="translate(156.0546875,-0.30078125)"/>
<path d="M0 0 C1.79099121 0.01885254 1.79099121 0.01885254 3.61816406 0.03808594 C22.44126874 0.30880274 38.02194303 3.75364852 55 12 C55.98742187 12.47308594 56.97484375 12.94617187 57.9921875 13.43359375 C84.98491548 27.24291691 102.77453816 52.00714862 111.9921875 80.3046875 C114.58187613 89.80021247 115.38806925 98.64267225 115.375 108.5 C115.37478851 109.16063446 115.37457703 109.82126892 115.37435913 110.50192261 C115.2863539 138.10011332 105.67939737 162.76398618 87 183 C86.41734375 183.66386719 85.8346875 184.32773438 85.234375 185.01171875 C77.78587536 193.08092669 67.01651034 200.55341831 57 205 C56.34 205 55.68 205 55 205 C57.70250431 209.88194326 61.11951197 214.13104294 64.5625 218.5 C65.83491743 220.12477918 67.10705161 221.74978023 68.37890625 223.375 C69.00039551 224.16777344 69.62188477 224.96054688 70.26220703 225.77734375 C72.52536986 228.67195381 74.76457697 231.5839074 77 234.5 C80.89839315 239.57682898 84.81913895 244.63577151 88.75 249.6875 C89.33426758 250.43845947 89.91853516 251.18941895 90.52050781 251.96313477 C93.65693405 255.99305791 96.79611731 260.02081438 99.9375 264.046875 C100.5759082 264.86583252 101.21431641 265.68479004 101.87207031 266.52856445 C103.09969572 268.10331483 104.32817577 269.67739943 105.55761719 271.25073242 C106.3876123 272.31578003 106.3876123 272.31578003 107.234375 273.40234375 C107.72131836 274.02616943 108.20826172 274.64999512 108.70996094 275.29272461 C112 279.64685844 112 279.64685844 112 281.9375 C110.44491309 285.14486674 108.04160103 286.24194878 105 288 C102.15454102 288.59838867 102.15454102 288.59838867 98.94140625 288.73046875 C97.62414551 288.78509277 96.30688477 288.8397168 94.94970703 288.89599609 C93.29988945 288.93448706 91.6499698 288.96870661 90 289 C88.47230988 289.03241791 88.47230988 289.03241791 86.91375732 289.06549072 C79.55741392 289.20902848 72.20261736 289.27240993 64.8449707 289.29516602 C62.22382252 289.30679373 59.6026999 289.32741075 56.98168945 289.35668945 C53.16341331 289.39920183 49.34582653 289.41549911 45.52734375 289.42578125 C44.35856186 289.44328934 43.18977997 289.46079742 41.98558044 289.47883606 C35.83220567 289.46235535 31.74187341 289.36134978 27 285 C25.04052734 282.87207031 25.04052734 282.87207031 23.3359375 280.578125 C22.69527344 279.72605469 22.05460938 278.87398438 21.39453125 277.99609375 C20.72808594 277.08988281 20.06164062 276.18367188 19.375 275.25 C18.66988281 274.30769531 17.96476563 273.36539062 17.23828125 272.39453125 C15.15073426 269.60229507 13.07497881 266.8015811 11 264 C9.47184391 261.95583141 7.93993236 259.91453716 6.40722656 257.8737793 C5.4681374 256.62334396 4.52998771 255.37220253 3.59277344 254.12036133 C-0.70817128 248.37631735 -5.03596267 242.65281334 -9.375 236.9375 C-10.04144531 236.05642578 -10.70789063 235.17535156 -11.39453125 234.26757812 C-13.24682623 231.83201521 -15.11909295 229.41350291 -17 227 C-17.51594727 226.31695801 -18.03189453 225.63391602 -18.56347656 224.93017578 C-19.05041992 224.31513184 -19.53736328 223.70008789 -20.0390625 223.06640625 C-20.64935303 222.27858765 -20.64935303 222.27858765 -21.27197266 221.47485352 C-26.63837475 216.89468467 -32.27079734 216.57605798 -38.99609375 216.70703125 C-39.82963882 216.71127609 -40.6631839 216.71552094 -41.52198792 216.71989441 C-44.16083311 216.73656686 -46.79888916 216.77419642 -49.4375 216.8125 C-51.23631703 216.82756167 -53.03514613 216.84124747 -54.83398438 216.85351562 C-59.22295615 216.88643272 -63.61134469 216.93813433 -68 217 C-67.5980542 215.94216309 -67.1961084 214.88432617 -66.78198242 213.79443359 C-59.37577433 194.22969934 -54.09383642 175.22639669 -53.29003906 154.21679688 C-53.09060509 149.09060509 -53.09060509 149.09060509 -52 148 C-49.85566528 147.87256284 -47.70720573 147.81424236 -45.55932617 147.78222656 C-44.88595215 147.77060486 -44.21257812 147.75898315 -43.51879883 147.74700928 C-42.04994395 147.72173256 -40.58105492 147.69838555 -39.11214256 147.67670441 C-35.97591516 147.62791409 -32.84013902 147.56158959 -29.70422077 147.49621201 C-23.86461624 147.37461723 -18.02510938 147.25966376 -12.18481445 147.17675781 C-8.12412032 147.11843401 -4.06446426 147.03653652 -0.00451088 146.93981171 C1.53446681 146.90741458 3.07364798 146.88342359 4.61289406 146.86847687 C16.96209228 146.74259355 28.05566661 144.85559014 37.31640625 135.94140625 C44.27557862 127.91656015 46.36929985 119.00458443 45.875 108.5625 C44.69412683 97.14291971 40.61823666 87.95380739 32.015625 80.21484375 C22.97338467 73.08268907 13.89963939 71.85374865 2.72265625 71.83886719 C1.81913925 71.83390228 0.91562225 71.82893738 -0.01527405 71.82382202 C-2.98935729 71.80928022 -5.96338712 71.80241012 -8.9375 71.796875 C-9.96045166 71.79404762 -10.98340332 71.79122025 -12.03735352 71.78830719 C-17.45573177 71.77334328 -22.87408361 71.7640974 -28.29248047 71.75976562 C-33.85220466 71.75429933 -39.4116817 71.73030215 -44.97132874 71.70179367 C-49.27826612 71.68303952 -53.58514562 71.67795484 -57.89212036 71.67642975 C-59.93955835 71.67342913 -61.98699597 71.66548982 -64.03439331 71.65224457 C-78.5582918 71.56502574 -93.25279387 71.5846867 -106.375 78.6875 C-107.04217041 79.03852783 -107.70934082 79.38955566 -108.39672852 79.7512207 C-122.43461239 87.39815075 -132.81219222 101.40637032 -137.84619141 116.54467773 C-140.16285655 125.02139593 -140.45294567 133.27653601 -140.5 142 C-140.59886297 160.32833582 -143.4623519 176.03227955 -156.6015625 189.6953125 C-163.90807358 196.71622705 -177.16345207 208.47857615 -188 209 C-196.99888485 204.85613661 -200.17296195 193.86448112 -203.52148438 185.1730957 C-207.902571 173.23463464 -210.6142928 160.72833771 -211 148 C-211.03996094 146.86691406 -211.07992187 145.73382813 -211.12109375 144.56640625 C-211.81134801 106.19638976 -199.43311164 69.98800056 -173 42 C-171.89591797 40.78183594 -171.89591797 40.78183594 -170.76953125 39.5390625 C-149.96342297 17.44346343 -116.2594966 1.71565634 -85.93725586 0.79467773 C-84.02987743 0.75316786 -82.12239175 0.71639906 -80.21484375 0.68359375 C-79.17728943 0.66272202 -78.13973511 0.64185028 -77.07073975 0.62034607 C-73.69306624 0.55433837 -70.31532298 0.49531996 -66.9375 0.4375 C-65.78150299 0.41665344 -64.62550598 0.39580688 -63.43447876 0.37432861 C-42.28922669 -0.00429205 -21.14799502 -0.24616714 0 0 Z " fill="#FFFFFF" transform="translate(395,0)"/>
</svg>
